<?xml version="1.0" encoding="UTF-8" standalone="no"?>
<svg width="200" height="200" viewBox="0 0 200 200" fill="none" xmlns="http://www.w3.org/2000/svg">
  <circle cx="100" cy="100" r="95" fill="#006241" stroke="white" stroke-width="5"/>
  <path d="M50 70C50 60 60 50 80 50C100 50 110 60 110 70C110 80 100 90 80 90C60 90 50 80 50 70Z" fill="white"/>
  <path d="M90 70C90 60 100 50 120 50C140 50 150 60 150 70C150 80 140 90 120 90C100 90 90 80 90 70Z" fill="white"/>
  <path d="M40 100C40 90 50 80 70 80C90 80 100 90 100 100C100 110 90 120 70 120C50 120 40 110 40 100Z" fill="white"/>
  <path d="M100 100C100 90 110 80 130 80C150 80 160 90 160 100C160 110 150 120 130 120C110 120 100 110 100 100Z" fill="white"/>
  <path d="M50 130C50 120 60 110 80 110C100 110 110 120 110 130C110 140 100 150 80 150C60 150 50 140 50 130Z" fill="white"/>
  <path d="M90 130C90 120 100 110 120 110C140 110 150 120 150 130C150 140 140 150 120 150C100 150 90 140 90 130Z" fill="white"/>
</svg>